<?xml version="1.0" encoding="utf-8"?>
<!-- Generator: Adobe Illustrator 19.2.1, SVG Export Plug-In . SVG Version: 6.00 Build 0)  -->
<svg version="1.1" id="Layer_1" xmlns="http://www.w3.org/2000/svg" xmlns:xlink="http://www.w3.org/1999/xlink" x="0px" y="0px"
	 viewBox="0 0 380 80" style="enable-background:new 0 0 380 80;" xml:space="preserve">
<style type="text/css">
	.st0{fill:#8759F2;}
	.st1{fill:#FF3E80;}
	.st2{fill:#FFC300;}
	.st3{fill:#00D4E6;}
	.st4{fill:#221B43;}
</style>
<title>Logo_Color_Horizontal</title>
<g id="Logo_Color_Horizontal">
	<path class="st0" d="M40.2,50.4L26.9,27.3H13.5C8,27.3,4.6,33.3,7.3,38l20,34.7c2.7,4.7,9.6,4.8,12.4,0l12.9-22.3
		C49.9,55.2,43,55.1,40.2,50.4z"/>
	<path class="st1" d="M53.6,27.3H26.9l13.3,23.1c2.7,4.7,9.6,4.8,12.4,0L59.8,38C62.5,33.2,59,27.3,53.6,27.3z"/>
	<path class="st2" d="M66.5,5H26.4c-5.5,0-8.9,5.9-6.2,10.7l6.7,11.6h26.7c5.5,0,8.9,6,6.2,10.7l12.9-22.3C75.4,11,72,5,66.5,5z"/>
	<path class="st3" d="M20.2,15.7c-1.3-2.2-1.3-4.9,0-7.1L7.3,30.9c1.3-2.2,3.6-3.6,6.2-3.6h13.4L20.2,15.7z"/>
	<path class="st4" d="M313.9,26.5c-10.8,0-19.3,8.3-19.3,18.6s8.3,18.6,19.3,18.6c11,0,19.3-8.3,19.3-18.6S324.7,26.5,313.9,26.5z
		 M313.9,56.2c-6.1,0-10.6-4.9-10.6-11s4.7-11,10.6-11c5.9,0,10.6,4.9,10.6,11S319.9,56.2,313.9,56.2L313.9,56.2z"/>
	<path class="st4" d="M187.7,12.2h-3.1c-2,0-3,1-3,3v44.7c0,2,1,3,3,3h3.1c2,0,3-1,3-3V15.2C190.7,13.2,189.7,12.2,187.7,12.2z"/>
	<path class="st4" d="M284.3,27.4h-3.1c-2,0-3,1-3,3V60c0,2,1,3,3,3h3.1c2,0,3-1,3-3V30.4C287.3,28.4,286.2,27.4,284.3,27.4z"/>
	<path class="st4" d="M129.7,27.3h-2.9c-2,0-2.9,0.7-3.6,2.6l-8.5,23.1l-8.5-23.1c-0.7-1.9-1.6-2.6-3.6-2.6h-3
		c-1.9,0-3.6,0.8-2.6,3.4l11.7,29.1c1,2.6,2,3.1,4.1,3.1h3.7c2.1,0,3.1-0.6,4.1-3.1l11.7-29.1C133.3,28.1,131.6,27.3,129.7,27.3z"/>
	<path class="st4" d="M230.9,27.4h-3.1c-2,0-3,1-3,3v14.9c-0.3,7.1-4.4,10.9-9.4,10.9c-4,0-6.2-3.5-6.2-8.8v-17c0-2-1-3-3-3h-3.1
		c-2,0-3,1-3,3v17.7c0,6.3,2.8,15.7,13.2,15.7c8.3,0,10.9-5.4,11.5-7.2V60c0,2,1,3,3,3h3.1c2,0,3-1,3-3V30.4
		C233.9,28.4,232.9,27.4,230.9,27.4z"/>
	<path class="st4" d="M343.3,63h3.1c2,0,3-1,3-3V45c0.3-7.1,4.4-10.9,9.4-10.9c4,0,6.2,3.5,6.2,8.8v17c0,2,1,3,3,3h3.1c2,0,3-1,3-3
		V42.2c0-6.3-2.8-15.7-13.2-15.7c-8.3,0-10.9,5.4-11.5,7.2v-3.3c0-2-1-3-3-3h-3.1c-2,0-3,1-3,3V60C340.3,62,341.4,63,343.3,63z"/>
	<path class="st4" d="M288.4,16.9c0,2.9-2.1,5.3-5.7,5.3c-3.6,0-5.7-2.4-5.7-5.3s2.2-5.3,5.7-5.3S288.4,14,288.4,16.9z"/>
	<path class="st4" d="M268.3,32.1c0.2-0.7,0.2-1.4-0.1-2.1c-0.3-0.6-0.9-1.1-1.5-1.3c-2.8-1-6.6-2.2-11-2.2
		c-7.8,0-13.2,4.4-13.5,10.1c-0.2,4.6,2.4,7.6,5.7,9.4c3.9,2.1,8.4,2.8,10.4,3.5c2.1,0.8,3.2,1.7,3.3,3.5c0,1.8-1.7,3.4-5.2,3.4
		c-4.4,0-8.1-1.5-10.5-2.5c-1.3-0.6-2.8-0.1-3.5,1.2l-0.7,1.9c-0.6,1.3-0.1,2.8,1.1,3.5c2.6,1.4,7.5,3.3,13.2,3.3
		c8.8,0,14.1-4.7,14.1-10.9c0-2.8-0.9-6.2-5.6-8.7c-2.5-1.4-9.4-2.7-11.7-4c-1.6-0.8-2.3-2.1-2.1-3.5c0.2-2,2.1-2.9,4.5-3.1
		c3.9-0.2,6.7,1.1,9.5,1.8c1.3,0.3,2.6-0.5,3-1.7L268.3,32.1z"/>
	<path class="st4" d="M154.7,26.5c-10.8,0-19.3,8.3-19.3,18.6s8.3,18.6,19.3,18.6c11,0,19.3-8.3,19.3-18.6S165.5,26.5,154.7,26.5z
		 M154.7,56.2c-6.1,0-10.6-4.9-10.6-11s4.7-11,10.6-11c5.9,0,10.6,4.9,10.6,11S160.8,56.2,154.7,56.2L154.7,56.2z"/>
</g>
</svg>
